<svg xmlns="http://www.w3.org/2000/svg" width="66" height="66" fill="none"><g clip-path="url(#a)"><path fill="#FF630B" fill-rule="evenodd" d="M22.882.831a13.7 13.7 0 0 0-9.684 4.011L.805 17.235v5.673A13.66 13.66 0 0 0 5.27 33.026 13.66 13.66 0 0 0 .805 43.144v5.673L13.198 61.21a13.7 13.7 0 0 0 9.684 4.011A13.66 13.66 0 0 0 33 60.756a13.66 13.66 0 0 0 10.118 4.465 13.7 13.7 0 0 0 9.684-4.01l12.393-12.394v-5.673a13.66 13.66 0 0 0-4.465-10.118 13.66 13.66 0 0 0 4.465-10.118v-5.673L52.802 4.842a13.7 13.7 0 0 0-9.684-4.01A13.66 13.66 0 0 0 33 5.296 13.66 13.66 0 0 0 22.882.83ZM42.27 33.026q-.231-.21-.454-.434L33 23.776l-8.816 8.816q-.223.223-.454.434.231.212.454.434L33 42.276l8.816-8.816q.223-.222.454-.434m-5.693 15.79v2.71a6.54 6.54 0 0 0 11.166 4.625l10.298-10.298v-2.709a6.54 6.54 0 0 0-11.166-4.625zm-7.154 0L19.125 38.52A6.541 6.541 0 0 0 7.96 43.144v2.71L18.257 56.15a6.54 6.54 0 0 0 11.166-4.625v-2.71Zm0-34.29v2.71L19.125 27.532A6.541 6.541 0 0 1 7.96 22.908V20.2L18.257 9.901a6.54 6.54 0 0 1 11.166 4.625m17.452 13.007L36.577 17.235v-2.709a6.54 6.54 0 0 1 11.166-4.625L58.041 20.2v2.71a6.54 6.54 0 0 1-11.166 4.624Z" clip-rule="evenodd"/></g><defs><clipPath id="a"><path fill="#fff" d="M.805 0h64.39v66H.805z"/></clipPath></defs></svg>