<svg xmlns="http://www.w3.org/2000/svg" width="32" height="32" fill="none"><g clip-path="url(#a)"><path fill="#AF60FF" d="M6 25H2a1 1 0 0 1-1-1v-5a1 1 0 0 1 1-1h4z" opacity=".14"/><path fill="#AF60FF" d="M25.5 7a3.5 3.5 0 0 0-1.5.339 3.5 3.5 0 1 0-2 3.322A3.501 3.501 0 1 0 25.5 7" opacity=".12"/><path stroke="#AF60FF" stroke-linecap="round" stroke-linejoin="round" stroke-width="2" d="M25.5 14a3.5 3.5 0 1 0 0-7 3.5 3.5 0 0 0 0 7M6 26H2a1 1 0 0 1-1-1v-5a1 1 0 0 1 1-1h4m8 1h4l8.375-1.926a2.075 2.075 0 0 1 1.477 3.856L23 24l-8 2H6v-7l3.125-3.125A3 3 0 0 1 11.25 15h6.25a2.5 2.5 0 0 1 0 5z"/><path fill="#AF60FF" d="M22 10.661a3.5 3.5 0 1 1 2-3.322"/><path stroke="#AF60FF" stroke-linecap="round" stroke-linejoin="round" stroke-width="2" d="M22 10.661a3.5 3.5 0 1 1 2-3.322"/></g><defs><clipPath id="a"><path fill="#fff" d="M0 0h32v32H0z"/></clipPath></defs></svg>