<svg xmlns="http://www.w3.org/2000/svg" width="200" height="80" fill="none"><rect width="200" height="80" fill="#0C0C16" rx="8"/><path fill="#5D6294" d="M38.8 45.041c5.693 0 10.307-4.514 10.307-10.082 0-5.57-4.614-10.084-10.307-10.084H24.37v20.166z"/><path fill="#5D6294" d="m24.37 24.875 24.737 30.25H32.615l-8.246-10.084V24.875Z"/><path fill="#5D6294" d="M40.718 44.867q-.951.175-1.92.174H24.37V24.875l16.35 19.992Zm25.354 2.2q-2.165 0-3.72-.847a5.9 5.9 0 0 1-2.36-2.425q-.826-1.578-.827-3.715 0-2.139.826-3.696a5.8 5.8 0 0 1 2.362-2.407q1.554-.866 3.718-.866 1.398 0 2.638.424 1.26.422 2.065 1.212l-.826 1.964q-.885-.731-1.81-1.06a5.6 5.6 0 0 0-1.988-.346q-2.106 0-3.207 1.252-1.101 1.231-1.102 3.523 0 2.29 1.102 3.542 1.103 1.25 3.207 1.25 1.063-.001 1.988-.326.924-.346 1.81-1.078l.826 1.963q-.806.77-2.065 1.213c-.85.286-1.74.429-2.637.423m10.36 0q-1.494 0-2.596-.597a4.2 4.2 0 0 1-1.713-1.694q-.61-1.116-.61-2.618c0-1.502.204-1.867.61-2.599a4.2 4.2 0 0 1 1.713-1.694q1.101-.597 2.597-.597t2.597.597a4.2 4.2 0 0 1 1.713 1.694q.61 1.098.609 2.599.001 1.501-.61 2.618a4.2 4.2 0 0 1-1.712 1.694q-1.103.597-2.597.597Zm0-1.83q1.103 0 1.772-.77.669-.788.669-2.31 0-1.539-.67-2.29-.667-.77-1.77-.77t-1.771.77q-.669.753-.669 2.29 0 1.522.669 2.31.669.77 1.77.77m6.99 1.637v-9.413h2.4v1.444a3.04 3.04 0 0 1 1.2-1.194q.769-.442 1.771-.443 2.165 0 2.834 1.848a3.25 3.25 0 0 1 1.3-1.346q.845-.502 1.927-.502 3.248 0 3.248 3.87v5.736h-2.46v-5.64q0-1.078-.374-1.578-.354-.5-1.22-.5-.964 0-1.516.673-.55.654-.55 1.83v5.215h-2.46v-5.64q0-1.078-.374-1.578-.354-.5-1.2-.5-.965 0-1.515.673-.552.654-.551 1.83v5.215zm17.257 0v-9.413h2.4v1.444a3.04 3.04 0 0 1 1.2-1.194q.769-.442 1.771-.443 2.165 0 2.834 1.848a3.25 3.25 0 0 1 1.298-1.346q.847-.502 1.929-.502 3.248 0 3.248 3.87v5.736h-2.46v-5.64q0-1.078-.374-1.578-.355-.5-1.221-.5-.963 0-1.515.673-.55.654-.55 1.83v5.215h-2.46v-5.64q0-1.078-.374-1.578-.354-.5-1.201-.5-.963 0-1.514.673-.552.654-.551 1.83v5.215zm20.385.193q-1.044 0-1.87-.385a3.4 3.4 0 0 1-1.279-1.078 2.67 2.67 0 0 1-.452-1.521q0-1.04.55-1.636.552-.616 1.792-.886 1.24-.269 3.325-.269h.689v-.404q0-.963-.434-1.386-.432-.423-1.455-.423-.808-.001-1.653.25c-.6.169-1.175.415-1.712.731l-.708-1.637a5.5 5.5 0 0 1 1.199-.596 8 8 0 0 1 1.477-.404q.73-.147 1.475-.154 2.105 0 3.13.962 1.023.944 1.023 2.945v5.698h-2.303v-1.501a2.7 2.7 0 0 1-1.062 1.25q-.728.445-1.732.444m.512-1.656q.963 0 1.594-.654.648-.655.649-1.655v-.424h-.669q-1.849 0-2.579.29-.707.268-.708 1 0 .635.453 1.039.453.405 1.26.404m7.082 1.463v-9.413h2.4v1.463a3.25 3.25 0 0 1 1.319-1.232 4.16 4.16 0 0 1 1.888-.424q3.405 0 3.404 3.87v5.736h-2.46v-5.62q0-1.098-.432-1.599-.414-.5-1.299-.5-1.082 0-1.732.674-.63.655-.629 1.752v5.293zm15.209.193q-1.258 0-2.224-.597-.944-.597-1.475-1.694-.531-1.116-.531-2.618 0-1.52.531-2.599.531-1.096 1.475-1.694.966-.597 2.224-.597 1.023 0 1.849.444.827.442 1.24 1.173v-5.581h2.46v13.57h-2.401v-1.56q-.393.81-1.239 1.291-.846.462-1.909.462m.689-1.83q1.102 0 1.771-.77.668-.788.669-2.31 0-1.539-.669-2.29-.67-.77-1.771-.77-1.103 0-1.771.77-.67.753-.669 2.29 0 1.522.669 2.31.668.77 1.771.77m11.13.867v-3.908h-3.897v-1.694h3.897v-3.791h1.81v3.791h3.896v1.694h-3.896v3.909zm8.316.77v-13.57h6.021q2.282-.001 3.522 1.078 1.24 1.058 1.24 2.983 0 1.521-.806 2.522-.808.982-2.322 1.328 1.002.309 1.652 1.483l2.322 4.176h-2.774l-2.401-4.33q-.354-.637-.847-.867-.471-.231-1.219-.231h-1.869v5.428zm2.519-7.256h3.069q2.755 0 2.755-2.195 0-2.175-2.755-2.175h-3.069z"/></svg>