<svg xmlns="http://www.w3.org/2000/svg" width="68" height="68" fill="none"><g clip-path="url(#a)"><rect width="68" height="68" fill="#0D0D17" rx="6"/><foreignObject width="152" height="230" x="-42" y="-81"><div xmlns="http://www.w3.org/1999/xhtml" style="backdrop-filter:blur(14px);clip-path:url(#b);height:100%;width:100%"/></foreignObject><g data-figma-bg-blur-radius="28" filter="url(#c)"><path fill="url(#d)" d="M-14 121h174v96H-14z" transform="rotate(-90 -14 121)"/><path fill="#fff" fill-opacity=".2" d="M-14 121V-53h96v174z"/></g><g filter="url(#e)"><circle cx="44" cy="14" r="52" fill="#10101B" transform="rotate(90 44 14)"/></g><g clip-path="url(#f)"><path fill="#fff" d="M31.676 38.954a8.438 8.438 0 1 0 0-16.875 8.438 8.438 0 0 0 0 16.875" opacity=".2"/><path stroke="#fff" stroke-linecap="round" stroke-linejoin="round" stroke-width="2" d="M31.676 38.954a8.438 8.438 0 1 0 0-16.875 8.438 8.438 0 0 0 0 16.875"/><path stroke="#fff" stroke-linecap="round" stroke-linejoin="round" stroke-width="2" d="M19.863 44.58c2.89-3.44 6.97-5.626 11.813-5.626s8.922 2.187 11.812 5.625m4.5-6.749a2.25 2.25 0 1 0 0-4.501 2.25 2.25 0 0 0 0 4.5Zm0-4.5v-1.688m-1.948 2.812-1.462-.844m1.462 3.094-1.462.844m3.41.282v1.687m1.949-2.813 1.461.844m-1.461-3.094 1.461-.844"/></g><path fill="url(#g)" d="M67 28h67v28H67z" transform="rotate(-180 67 28)"/></g><rect width="67" height="67" x=".5" y=".5" stroke="url(#h)" rx="5.5"/><defs><clipPath id="b" transform="translate(42 81)"><path d="M-14 121V-53h96v174z"/></clipPath><clipPath id="a"><rect width="68" height="68" fill="#fff" rx="6"/></clipPath><clipPath id="f"><path fill="#fff" d="M16.488 16.454h36v36h-36z"/></clipPath><linearGradient id="d" x1="74.225" x2="83.505" y1="214.71" y2="-43.876" gradientUnits="userSpaceOnUse"><stop offset=".02" stop-color="#9968FF"/><stop offset=".101" stop-color="#FFAF56"/><stop offset=".225" stop-color="#9968FF"/><stop offset=".248" stop-color="#fff"/><stop offset=".305" stop-color="#FFAF56" stop-opacity=".9"/></linearGradient><linearGradient id="h" x1="34" x2="34" y1="0" y2="68" gradientUnits="userSpaceOnUse"><stop stop-color="#4545E8" stop-opacity=".15"/><stop offset="1" stop-color="#4545E8" stop-opacity="0"/></linearGradient><filter id="c" width="152" height="230" x="-42" y="-81" color-interpolation-filters="sRGB" filterUnits="userSpaceOnUse"><feFlood flood-opacity="0" result="BackgroundImageFix"/><feBlend in="SourceGraphic" in2="BackgroundImageFix" result="shape"/><feGaussianBlur result="effect1_foregroundBlur_450_4698" stdDeviation="5"/></filter><filter id="e" width="126" height="126" x="-19" y="-49" color-interpolation-filters="sRGB" filterUnits="userSpaceOnUse"><feFlood flood-opacity="0" result="BackgroundImageFix"/><feBlend in="SourceGraphic" in2="BackgroundImageFix" result="shape"/><feGaussianBlur result="effect1_foregroundBlur_450_4698" stdDeviation="5.5"/></filter><radialGradient id="g" cx="0" cy="0" r="1" gradientTransform="matrix(33.5 0 0 28 100.5 56)" gradientUnits="userSpaceOnUse"><stop stop-color="#fff" stop-opacity=".12"/><stop offset="1" stop-color="#fff" stop-opacity="0"/></radialGradient></defs></svg>