<svg xmlns="http://www.w3.org/2000/svg" width="200" height="80" fill="none"><rect width="200" height="80" fill="#0C0C16" rx="8"/><path fill="#5D6294" d="M48.129 47.346c6.77 0 12.257-5.482 12.257-12.244q-.001-1.15-.205-2.244a12.3 12.3 0 0 0-2.247-.205c-6.769 0-12.256 5.482-12.256 12.244q.001 1.152.205 2.244c.728.134 1.48.206 2.246.206Z"/><path fill="#5D6294" fill-rule="evenodd" d="M45.883 47.141c-5.697-1.053-10.011-6.043-10.011-12.038 0-6.763 5.487-12.244 12.257-12.244 6.002 0 10.997 4.31 12.052 10a12.3 12.3 0 0 0-2.247-.205c-6.77 0-12.257 5.482-12.257 12.243q.001 1.152.206 2.244" clip-rule="evenodd"/><path fill="#5D6294" fill-rule="evenodd" d="M48.129 47.347c6.769 0 12.257-5.483 12.257-12.244q-.001-1.152-.206-2.244c5.697 1.054 10.011 6.043 10.011 12.038 0 6.763-5.488 12.244-12.257 12.244a12.26 12.26 0 0 1-12.052-9.999q1.095.203 2.247.205" clip-rule="evenodd"/><path fill="#5D6294" d="M88.562 47.98c4.188 0 7.206-2.362 7.51-5.868h-3.51c-.28 1.683-1.895 2.828-4.001 2.828-2.645 0-4.68-1.823-4.68-5.33 0-3.505 2.035-5.352 4.68-5.352 2.059 0 3.674 1.145 3.908 2.851h3.674c-.444-3.529-3.464-5.866-7.582-5.866-4.376 0-8.213 2.851-8.213 8.368 0 5.516 3.768 8.367 8.213 8.367v.001Zm14.025-12.157c-3.23 0-5.148 1.895-5.289 4.255h2.902c.046-.982.772-1.87 2.2-1.87 1.333 0 2.105.678 2.105 1.66 0 .49-.304.865-.89.865h-1.988c-2.575 0-4.306 1.402-4.306 3.717 0 2.01 1.568 3.528 3.861 3.528 1.615 0 2.926-.724 3.322-1.822v1.636h3.23V40.22c0-2.665-2.175-4.396-5.147-4.396Zm-.585 9.795c-.913 0-1.569-.537-1.569-1.31 0-.911.703-1.518 1.685-1.518h2.387v.163c0 1.496-.913 2.665-2.503 2.665m7.917 6.943h3.253V46.74c.633.795 1.779 1.24 3.113 1.24 3.393 0 5.686-2.41 5.686-6.08s-2.106-6.077-5.405-6.077c-1.522 0-2.692.561-3.394 1.474V36.01h-3.253zm5.968-7.388c-1.756 0-2.902-1.309-2.902-3.271 0-1.988 1.147-3.297 2.902-3.297 1.708 0 2.879 1.31 2.879 3.297 0 1.963-1.171 3.271-2.879 3.271m11.812 2.806c2.761 0 4.587-1.474 4.587-3.718 0-5.328-6.459-2.593-6.459-5.001 0-.748.631-1.145 1.544-1.145.889 0 1.802.538 1.943 1.542h2.83c-.117-2.313-2.035-3.834-4.867-3.834-2.41 0-4.213 1.474-4.213 3.553 0 4.957 6.343 2.596 6.343 5.003 0 .655-.703 1.145-1.708 1.145-1.217 0-2.036-.654-2.153-1.706h-2.808c.116 2.548 2.082 4.161 4.961 4.161m17.433-11.969h-3.276v6.452c0 1.496-1.007 2.618-2.435 2.618-1.333 0-2.269-1.029-2.269-2.453V36.01h-3.253v7.34c0 2.689 1.732 4.628 4.376 4.628 1.615 0 2.925-.7 3.581-1.822v1.635h3.276zm2.339 11.781h3.253V30.892h-3.253v16.9Zm13.475-3.996c-.257 1.004-1.123 1.52-2.433 1.52-1.639 0-2.692-1.03-2.926-2.69h8.471c.023-.256.047-.606.047-1.05 0-2.69-1.662-5.752-5.826-5.752-4.002 0-5.827 3.063-5.827 6.055 0 2.969 2.059 6.1 6.061 6.1 2.901 0 5.148-1.635 5.616-4.183zm-2.667-5.587c1.567 0 2.48 1.052 2.574 2.36h-5.219c.281-1.635 1.171-2.36 2.645-2.36"/></svg>