<svg xmlns="http://www.w3.org/2000/svg" width="20" height="20" fill="none"><g clip-path="url(#a)"><path fill="#fff" fill-rule="evenodd" d="M5 0a5 5 0 0 1 5 5V0h5a5 5 0 0 1 0 10 5 5 0 0 1 3.554 8.517l-.018.018-.017.017A4.98 4.98 0 0 1 15 20a4.98 4.98 0 0 1-3.5-1.43l-.036-.035A4.98 4.98 0 0 1 10 15a5 5 0 0 1-10 0v-5h5A5 5 0 0 1 5 0m4 5a4 4 0 0 1-4 4V1a4 4 0 0 1 4 4m10 10a4 4 0 1 0-8 0zM1 11v4a4 4 0 1 0 8 0v-4zm10-2V1h4a4 4 0 1 1 0 8z" clip-rule="evenodd"/></g><defs><clipPath id="a"><path fill="#fff" d="M0 0h20v20H0z"/></clipPath></defs></svg>