<svg xmlns="http://www.w3.org/2000/svg" width="200" height="80" fill="none"><rect width="200" height="80" fill="#0C0C16" rx="8"/><path fill="#5D6294" d="M52.144 40c-2.7 3.094-6.625 5.041-10.993 5.041S32.859 43.094 30.157 40c2.7-3.094 6.625-5.041 10.994-5.041s8.292 1.947 10.993 5.04Z"/><path fill="#5D6294" fill-rule="evenodd" d="M26.401 50.084c0-8.354 6.604-15.126 14.75-15.126-4.368 0-8.294 1.948-10.994 5.042 2.7 3.094 6.625 5.041 10.993 5.041S49.443 43.094 52.144 40a15.3 15.3 0 0 1 3.755 10.084v5.713c0 .742-.586 1.344-1.311 1.344H27.713c-.724 0-1.312-.602-1.312-1.344z" clip-rule="evenodd"/><path fill="#5D6294" fill-rule="evenodd" d="M35.618 43.943A14.8 14.8 0 0 1 30.157 40c2.7-3.094 6.625-5.041 10.993-5.041S49.443 36.906 52.144 40a15.3 15.3 0 0 0 3.755-10.082v-5.715c0-.742-.586-1.344-1.311-1.344H27.713c-.724 0-1.312.602-1.312 1.344v5.715c0 6.347 3.813 11.78 9.217 14.025" clip-rule="evenodd"/><path fill="#5D6294" d="M78.937 32.564v15.228h-2.979v-6.48h-6.361v6.48h-2.978V32.564h2.978v6.261h6.361v-6.26h2.979ZM87.1 47.99q-1.702-.001-3.063-.764a5.66 5.66 0 0 1-2.149-2.204q-.765-1.417-.765-3.272t.786-3.273a5.6 5.6 0 0 1 2.191-2.182q1.382-.785 3.086-.785 1.702 0 3.084.785a5.47 5.47 0 0 1 2.17 2.182q.808 1.419.81 3.273 0 1.854-.831 3.272a5.7 5.7 0 0 1-2.213 2.204q-1.382.763-3.106.764m0-2.662q.81 0 1.51-.393a2.95 2.95 0 0 0 1.15-1.221q.426-.81.425-1.964 0-1.725-.894-2.64a2.82 2.82 0 0 0-2.148-.938q-1.277 0-2.148.938-.852.915-.852 2.64 0 1.722.83 2.662.85.915 2.127.916m19.459-9.621v12.086h-3v-1.527a4 4 0 0 1-1.51 1.243 4.6 4.6 0 0 1-2 .436q-1.383 0-2.446-.588-1.065-.611-1.68-1.768-.596-1.178-.596-2.791v-7.091h2.978v6.654q0 1.44.703 2.225.7.764 1.914.764 1.234 0 1.936-.764.7-.785.701-2.225v-6.655zm5.918 1.875a4.3 4.3 0 0 1 1.488-1.504q.937-.545 2.128-.546v3.206h-.787q-1.404.001-2.127.677-.703.675-.702 2.356v6.022h-2.979V35.706h2.979zm10.239-2.072q1.32 0 2.319.546 1 .523 1.574 1.375v-1.724h3V47.88q0 1.68-.66 2.988a4.9 4.9 0 0 1-1.978 2.095q-1.32.785-3.19.785-2.511 0-4.129-1.2-1.595-1.2-1.808-3.273h2.957q.234.83 1.001 1.31.787.501 1.892.501 1.298 0 2.106-.807.809-.786.809-2.4v-1.876q-.574.851-1.595 1.419-1 .566-2.298.567a4.97 4.97 0 0 1-2.723-.786q-1.233-.786-1.958-2.203-.7-1.44-.701-3.295 0-1.831.701-3.25.724-1.418 1.936-2.183a5.1 5.1 0 0 1 2.745-.763Zm3.894 6.24q0-1.113-.426-1.898a2.95 2.95 0 0 0-1.149-1.221 2.95 2.95 0 0 0-1.553-.437 2.96 2.96 0 0 0-1.532.415q-.702.413-1.149 1.22-.425.786-.425 1.877t.425 1.92q.448.807 1.149 1.243.723.436 1.532.436.83 0 1.553-.414a3.14 3.14 0 0 0 1.148-1.221q.427-.808.427-1.92m8.886-10.101v16.144h-2.978V31.648h2.978Zm2.177 10.057q0-1.831.701-3.25.724-1.418 1.936-2.183a5.1 5.1 0 0 1 2.745-.763q1.32 0 2.298.546 1 .544 1.595 1.375v-1.724h3v12.086h-3v-1.767q-.574.85-1.595 1.418-1 .545-2.319.546a4.97 4.97 0 0 1-2.724-.786q-1.212-.786-1.936-2.203-.7-1.44-.701-3.295m9.275.044q0-1.113-.425-1.898a2.95 2.95 0 0 0-1.149-1.221 2.95 2.95 0 0 0-1.553-.437 2.96 2.96 0 0 0-1.532.415q-.702.413-1.148 1.22-.426.786-.426 1.877t.426 1.92a3.3 3.3 0 0 0 1.148 1.243 2.9 2.9 0 0 0 1.532.436q.83 0 1.553-.414a3.13 3.13 0 0 0 1.149-1.221q.425-.808.425-1.92m10.419 6.24q-1.447 0-2.595-.524-1.15-.546-1.83-1.462a3.8 3.8 0 0 1-.723-2.028h3q.084.698.659 1.155.595.458 1.468.458.85 0 1.319-.348.49-.35.49-.895 0-.589-.597-.873-.574-.305-1.85-.655-1.32-.326-2.17-.675a3.9 3.9 0 0 1-1.447-1.07q-.596-.72-.596-1.942 0-1.004.553-1.831.575-.83 1.617-1.31 1.064-.48 2.49-.48 2.105 0 3.36 1.091 1.255 1.07 1.384 2.902h-2.851q-.064-.72-.596-1.135-.51-.435-1.383-.436-.808 0-1.255.305a.98.98 0 0 0-.426.851q0 .61.596.939.596.305 1.852.632 1.275.327 2.105.676a3.6 3.6 0 0 1 1.426 1.09q.616.72.638 1.921 0 1.047-.575 1.876-.552.83-1.617 1.309-1.042.459-2.446.459m11.593 0q-1.447 0-2.596-.524-1.148-.546-1.829-1.462a3.77 3.77 0 0 1-.723-2.028h3q.084.698.659 1.155.595.458 1.468.458.85 0 1.319-.348.489-.35.489-.895 0-.589-.596-.873-.575-.305-1.851-.655-1.32-.326-2.169-.675a3.85 3.85 0 0 1-1.447-1.07q-.596-.72-.596-1.942 0-1.004.553-1.831.575-.83 1.617-1.31 1.063-.48 2.49-.48 2.105 0 3.36 1.091 1.255 1.07 1.383 2.902h-2.85q-.064-.72-.596-1.135-.51-.435-1.383-.436-.808 0-1.255.305a.98.98 0 0 0-.426.851q0 .61.596.939.596.305 1.85.632 1.278.327 2.107.676a3.6 3.6 0 0 1 1.426 1.09q.616.72.638 1.921 0 1.047-.575 1.876-.552.83-1.617 1.309-1.042.459-2.446.459"/></svg>