<svg xmlns="http://www.w3.org/2000/svg" width="76" height="76" fill="none"><path fill="#9968FF" fill-rule="evenodd" d="M75.497 38c0 20.711-16.789 37.5-37.5 37.5S.497 58.711.497 38 17.287.5 37.997.5s37.5 16.79 37.5 37.5m-19.9-6.423a2.81 2.81 0 0 1-2.598 1.736h-30a2.813 2.813 0 0 1 0-5.625h23.21l-2.7-2.699a2.812 2.812 0 1 1 3.978-3.977l7.5 7.5a2.81 2.81 0 0 1 .61 3.065m-32.6 11.111a2.812 2.812 0 0 0-1.988 4.801l7.5 7.5a2.812 2.812 0 1 0 3.977-3.977l-2.698-2.699h23.21a2.813 2.813 0 0 0 0-5.625z" clip-rule="evenodd"/></svg>