<svg xmlns="http://www.w3.org/2000/svg" width="200" height="80" fill="none"><rect width="200" height="80" fill="#0C0C16" rx="8"/><path fill="#5D6294" fill-rule="evenodd" d="M53.082 23.99a2.7 2.7 0 0 0-1.13 0c-.43.093-.816.321-1.12.503l-.084.049-10.374 6.085-.088.052c-.325.19-.732.426-1.044.784-.272.312-.476.68-.6 1.078-.146.462-.144.954-.143 1.344v12.23c-.001.39-.003.882.142 1.344.126.4.33.768.6 1.078.313.359.72.596 1.045.785l.088.051 10.374 6.086.083.05c.305.18.691.408 1.122.502.373.08.756.08 1.13 0 .43-.094.815-.321 1.121-.503l.084-.05 10.372-6.085.039-.022.05-.03c.325-.188.732-.425 1.045-.784.27-.312.475-.68.6-1.078.144-.462.143-.953.141-1.344v-12.23c.002-.39.003-.882-.141-1.345a3 3 0 0 0-.6-1.078c-.313-.357-.72-.594-1.045-.783l-.088-.052-10.372-6.085-.084-.05c-.306-.181-.692-.409-1.123-.502m-.973 3.14a10 10 0 0 1 .402-.23l.007-.003.006.003q.204.11.402.23l9.321 5.468-9.73 5.71-9.73-5.71zm-10.806 7.984 9.813 5.758v11.416l-9.38-5.503a9 9 0 0 1-.42-.253l-.007-.005v-.01q-.009-.254-.006-.509z" clip-rule="evenodd"/><path fill="#5D6294" d="M79.294 44.948h4.462v2.776h-7.87V32.956h3.408zm7.6-10.183q-.896 0-1.474-.546a1.9 1.9 0 0 1-.42-.635 1.9 1.9 0 0 1-.137-.754q0-.84.557-1.389.578-.567 1.474-.567.876 0 1.435.567.579.547.578 1.39a1.87 1.87 0 0 1-.58 1.388q-.556.546-1.433.546m1.693 1.221v11.738h-3.406V35.985zm6.494-.17q1.174 0 2.05.507a3.57 3.57 0 0 1 1.376 1.324v-1.66h3.407v11.716q0 1.62-.619 2.924a4.7 4.7 0 0 1-1.853 2.105q-1.235.777-3.086.777-2.472 0-4.005-1.24-1.534-1.22-1.753-3.325h3.367q.16.675.757 1.052.598.4 1.473.4 1.057 0 1.674-.652.638-.63.638-2.04V46.04q-.498.82-1.375 1.347-.877.505-2.052.505a4.4 4.4 0 0 1-2.49-.737q-1.115-.756-1.773-2.124-.637-1.387-.638-3.198 0-1.81.638-3.177.66-1.367 1.773-2.103a4.43 4.43 0 0 1 2.491-.737m3.425 6.04q0-1.347-.717-2.126a2.2 2.2 0 0 0-.773-.582 2.2 2.2 0 0 0-.94-.196q-1.016 0-1.733.778-.697.758-.697 2.104t.697 2.145q.718.78 1.733.779 1.017 0 1.714-.778.716-.78.717-2.125Zm12.505-5.996q1.913-.001 3.069 1.345 1.154 1.327 1.155 3.66v6.86h-3.386V41.35q0-1.177-.579-1.83-.578-.653-1.553-.653-.977 0-1.554.653-.578.652-.578 1.83v6.374h-3.407V32.157h3.407v5.407c.359-.532.846-.96 1.414-1.242q.897-.462 2.012-.462m12.587 8.814v3.05h-1.733q-1.853 0-2.889-.946-1.036-.967-1.036-3.135v-4.67h-1.354v-2.988h1.354v-2.86h3.407v2.86h2.231v2.988h-2.231v4.712q0 .526.239.757.238.231.796.231zm5.105-7.027a3.6 3.6 0 0 1 1.374-1.325q.897-.505 2.052-.505 1.374 0 2.49.737 1.117.735 1.753 2.103.657 1.367.658 3.177 0 1.808-.658 3.198-.637 1.368-1.753 2.125a4.4 4.4 0 0 1-2.49.736q-1.175 0-2.052-.484a3.8 3.8 0 0 1-1.374-1.326v1.641h-3.408V32.157h3.408zm4.861 4.187q0-1.348-.718-2.104a2.3 2.3 0 0 0-.783-.584 2.2 2.2 0 0 0-.95-.194q-1.016 0-1.733.778-.697.778-.697 2.125t.697 2.125q.717.779 1.733.778c1.016-.001 1.255-.259 1.733-.778q.718-.8.718-2.146m10.113 6.059q-1.633 0-2.948-.737a5.33 5.33 0 0 1-2.051-2.103q-.738-1.368-.738-3.198 0-1.809.757-3.177a5.26 5.26 0 0 1 2.072-2.124q1.314-.737 2.949-.737 1.632 0 2.947.737a5.26 5.26 0 0 1 2.072 2.124q.757 1.368.757 3.177 0 1.81-.777 3.198a5.25 5.25 0 0 1-2.092 2.104q-1.314.736-2.948.736m0-3.113q.976 0 1.654-.758.697-.758.697-2.167t-.678-2.167a2.1 2.1 0 0 0-.733-.566 2.06 2.06 0 0 0-.899-.191q-.998 0-1.655.757-.657.736-.657 2.167 0 1.41.638 2.167c.201.242.451.436.734.567.282.13.589.196.899.19Zm13.999 2.944-2.132-3.26-1.793 3.26h-3.685l3.666-5.995-3.766-5.744h3.825l2.132 3.24 1.793-3.24h3.685l-3.725 5.912 3.825 5.827z"/></svg>