<svg xmlns="http://www.w3.org/2000/svg" width="68" height="68" fill="none"><g clip-path="url(#a)"><rect width="68" height="68" fill="#0C0C16" rx="6"/><g clip-path="url(#b)"><path fill="#fff" d="M22.75 44.125h-4.5A1.125 1.125 0 0 1 17.125 43v-5.625a1.125 1.125 0 0 1 1.125-1.125h4.5z" opacity=".14"/><path fill="#fff" d="M44.687 23.875c-.583 0-1.16.13-1.687.381a3.938 3.938 0 1 0-2.25 3.738 3.938 3.938 0 1 0 3.937-4.119" opacity=".12"/><path stroke="#fff" stroke-linecap="round" stroke-linejoin="round" stroke-width="2" d="M44.688 31.75a3.938 3.938 0 1 0 0-7.875 3.938 3.938 0 0 0 0 7.875M22.75 45.25h-4.5a1.125 1.125 0 0 1-1.125-1.125V38.5a1.125 1.125 0 0 1 1.125-1.125h4.5m9 1.125h4.5l9.422-2.167a2.334 2.334 0 0 1 1.662 4.338L41.875 43l-9 2.25H22.75v-7.875l3.516-3.516a3.38 3.38 0 0 1 2.39-.984h7.032a2.812 2.812 0 1 1 0 5.625z"/><path fill="#fff" d="M40.75 27.994A3.937 3.937 0 1 1 43 24.256"/><path stroke="#fff" stroke-linecap="round" stroke-linejoin="round" stroke-width="2" d="M40.75 27.994A3.937 3.937 0 1 1 43 24.256"/></g><path fill="url(#c)" d="M0 40h67v28H0z"/></g><rect width="67" height="67" x=".5" y=".5" stroke="#252537" rx="5.5"/><defs><clipPath id="a"><rect width="68" height="68" fill="#fff" rx="6"/></clipPath><clipPath id="b"><path fill="#fff" d="M16 16h36v36H16z"/></clipPath><radialGradient id="c" cx="0" cy="0" r="1" gradientTransform="matrix(33.5 0 0 28 33.5 68)" gradientUnits="userSpaceOnUse"><stop stop-color="#fff" stop-opacity=".12"/><stop offset="1" stop-color="#fff" stop-opacity="0"/></radialGradient></defs></svg>