<svg xmlns="http://www.w3.org/2000/svg" width="32" height="32" fill="none"><g clip-path="url(#a)"><path fill="#AF60FF" d="M22 12.09v3.41c0 2.25-3.655 4.106-8.434 4.445C15.306 20.604 17.55 21 20 21c5.523 0 10-2.015 10-4.5 0-2.177-3.435-3.992-8-4.41M12 15c5.523 0 10-2.015 10-4.5S17.523 6 12 6 2 8.015 2 10.5 6.477 15 12 15" opacity=".2"/><path stroke="#AF60FF" stroke-linecap="round" stroke-linejoin="round" stroke-width="2" d="M12 15c5.523 0 10-2.015 10-4.5S17.523 6 12 6 2 8.015 2 10.5 6.477 15 12 15"/><path stroke="#AF60FF" stroke-linecap="round" stroke-linejoin="round" stroke-width="2" d="M2 10.5v5C2 17.985 6.478 20 12 20s10-2.015 10-4.5v-5M8 14.625v5"/><path stroke="#AF60FF" stroke-linecap="round" stroke-linejoin="round" stroke-width="2" d="M22 12.09c4.565.418 8 2.233 8 4.41 0 2.485-4.477 4.5-10 4.5-2.45 0-4.695-.396-6.434-1.055"/><path stroke="#AF60FF" stroke-linecap="round" stroke-linejoin="round" stroke-width="2" d="M10 19.91v1.59c0 2.485 4.477 4.5 10 4.5s10-2.015 10-4.5v-5m-6 4.125v5m-8-11v11"/></g><defs><clipPath id="a"><path fill="#fff" d="M0 0h32v32H0z"/></clipPath></defs></svg>