<svg xmlns="http://www.w3.org/2000/svg" width="66" height="66" fill="none"><g clip-path="url(#a)"><path fill="#A67CFF" fill-rule="evenodd" d="M16.5 0C25.613 0 33 7.387 33 16.5V0h16.5C58.613 0 66 7.387 66 16.5S58.613 33 49.5 33C58.613 33 66 40.387 66 49.5c0 4.525-1.821 8.624-4.771 11.605l-.062.062-.055.055A16.45 16.45 0 0 1 49.5 66a16.45 16.45 0 0 1-11.775-4.942A16.45 16.45 0 0 1 33 49.5C33 58.613 25.613 66 16.5 66S0 58.613 0 49.5V33h16.5C7.387 33 0 25.613 0 16.5S7.387 0 16.5 0m13.2 16.5c0 7.29-5.91 13.2-13.2 13.2V3.3c7.29 0 13.2 5.91 13.2 13.2m33 33c0-7.29-5.91-13.2-13.2-13.2s-13.2 5.91-13.2 13.2zM3.3 36.3v13.2c0 7.29 5.91 13.2 13.2 13.2s13.2-5.91 13.2-13.2V36.3zm33-6.6V3.3h13.2c7.29 0 13.2 5.91 13.2 13.2s-5.91 13.2-13.2 13.2z" clip-rule="evenodd"/></g><defs><clipPath id="a"><path fill="#fff" d="M0 0h66v66H0z"/></clipPath></defs></svg>