<svg xmlns="http://www.w3.org/2000/svg" width="77" height="76" fill="none"><mask id="b" width="77" height="76" x="0" y="0" fill="#000" maskUnits="userSpaceOnUse"><path fill="#fff" d="M0 0h77v76H0z"/><path d="M1 38C1 17.013 18.013 0 39 0s38 17.013 38 38-17.013 38-38 38S1 58.987 1 38"/></mask><path fill="url(#a)" d="M1 38C1 17.013 18.013 0 39 0s38 17.013 38 38-17.013 38-38 38S1 58.987 1 38"/><path fill="#2F3237" d="M1 0h76zm76 76H1zm-39 0C17.013 76 0 58.987 0 38S17.013 0 38 0h1C18.566 0 2 17.013 2 38s16.566 38 37 38zM77 0v76z" mask="url(#b)"/><path fill="#fff" d="M52.75 29.248h-5.469a4.999 4.999 0 0 0-7.39-6.703c-.369.373-.67.807-.891 1.282a4.6 4.6 0 0 0-.89-1.282 5 5 0 0 0-7.391 6.703H25.25a2.5 2.5 0 0 0-2.5 2.5v5a2.5 2.5 0 0 0 2.5 2.5v10a2.5 2.5 0 0 0 2.5 2.5h22.5a2.5 2.5 0 0 0 2.5-2.5v-10a2.5 2.5 0 0 0 2.5-2.5v-5a2.5 2.5 0 0 0-2.5-2.5m-11.094-4.937a2.5 2.5 0 1 1 3.532 3.531c-.766.782-3 1.203-4.891 1.36.156-1.891.578-4.125 1.36-4.891Zm-8.843 0a2.516 2.516 0 0 1 3.53 0c.782.766 1.204 3 1.36 4.89-1.89-.156-4.125-.578-4.89-1.359a2.516 2.516 0 0 1 0-3.531M52.75 36.749h-12.5v11.25a1.25 1.25 0 1 1-2.5 0v-11.25h-12.5v-5h12.5v5h2.5v-5h12.5z"/><defs><linearGradient id="a" x1="1" x2="77" y1="38.021" y2="38.021" gradientUnits="userSpaceOnUse"><stop stop-color="#6D7C99"/><stop offset="1" stop-color="#181A1E"/></linearGradient></defs></svg>