<svg xmlns="http://www.w3.org/2000/svg" width="91" height="91" fill="none"><g filter="url(#a)"><rect width="89.893" height="89.893" x=".162" y=".416" fill="#0B0B15" rx="44.947"/><rect width="88.77" height="88.77" x=".724" y=".978" stroke="#7A78E7" stroke-opacity=".2" stroke-width="1.124" rx="44.385"/><path fill="#FFF0E7" d="M62.165 41.692a10.1 10.1 0 0 0-.865-8.276 10.2 10.2 0 0 0-10.978-4.891 10.08 10.08 0 0 0-7.537-3.388h-.088c-4.42 0-8.34 2.852-9.699 7.056a10.08 10.08 0 0 0-6.737 4.89 10.2 10.2 0 0 0 1.253 11.95 10.08 10.08 0 0 0 .865 8.277 10.195 10.195 0 0 0 10.977 4.89 10.08 10.08 0 0 0 7.538 3.389h.09c4.422 0 8.34-2.853 9.7-7.061a10.08 10.08 0 0 0 6.737-4.89 10.2 10.2 0 0 0-1.256-11.946M46.961 62.944h-.01a7.57 7.57 0 0 1-4.843-1.754q.12-.066.24-.136l8.053-4.652a1.31 1.31 0 0 0 .662-1.139V43.901l3.405 1.965a.12.12 0 0 1 .066.094v9.403a7.59 7.59 0 0 1-7.573 7.581m-16.288-6.956a7.57 7.57 0 0 1-.905-5.08c.06.036.165.1.24.143l8.054 4.652a1.31 1.31 0 0 0 1.323 0l9.834-5.678v3.939a.12.12 0 0 1-.049.097l-8.142 4.701a7.59 7.59 0 0 1-10.355-2.775Zm-2.119-17.584a7.56 7.56 0 0 1 3.946-3.323c0 .07-.004.192-.004.277v9.313a1.31 1.31 0 0 0 .661 1.137l9.834 5.677-3.405 1.966a.12.12 0 0 1-.114.01l-8.144-4.705a7.59 7.59 0 0 1-2.773-10.351Zm27.97 6.51-9.833-5.679 3.404-1.965a.12.12 0 0 1 .115-.01l8.143 4.701a7.59 7.59 0 0 1 3.79 6.566 7.58 7.58 0 0 1-4.962 7.115v-9.594a1.31 1.31 0 0 0-.656-1.135Zm3.389-5.1a8 8 0 0 0-.24-.143l-8.054-4.653a1.32 1.32 0 0 0-1.323 0l-9.833 5.678v-3.938c0-.039.018-.075.048-.098l8.143-4.697a7.582 7.582 0 0 1 11.259 7.85ZM38.612 46.82l-3.405-1.966a.12.12 0 0 1-.066-.093v-9.404a7.582 7.582 0 0 1 12.432-5.822 7 7 0 0 0-.24.136l-8.054 4.652a1.31 1.31 0 0 0-.662 1.138v.008zm1.85-3.987 4.379-2.53 4.38 2.528v5.057l-4.38 2.529-4.38-2.529v-5.055Z"/></g><defs><filter id="a" width="89.894" height="89.893" x=".162" y=".416" color-interpolation-filters="sRGB" filterUnits="userSpaceOnUse"><feFlood flood-opacity="0" result="BackgroundImageFix"/><feBlend in="SourceGraphic" in2="BackgroundImageFix" result="shape"/><feColorMatrix in="SourceAlpha" result="hardAlpha" values="0 0 0 0 0 0 0 0 0 0 0 0 0 0 0 0 0 0 127 0"/><feMorphology in="SourceAlpha" radius="4.495" result="effect1_innerShadow_450_20823"/><feOffset/><feGaussianBlur stdDeviation="6"/><feComposite in2="hardAlpha" k2="-1" k3="1" operator="arithmetic"/><feColorMatrix values="0 0 0 0 0.478431 0 0 0 0 0.470588 0 0 0 0 0.905882 0 0 0 0.12 0"/><feBlend in2="shape" result="effect1_innerShadow_450_20823"/><feColorMatrix in="SourceAlpha" result="hardAlpha" values="0 0 0 0 0 0 0 0 0 0 0 0 0 0 0 0 0 0 127 0"/><feMorphology in="SourceAlpha" operator="dilate" radius="3.75" result="effect2_innerShadow_450_20823"/><feOffset/><feGaussianBlur stdDeviation="4.495"/><feComposite in2="hardAlpha" k2="-1" k3="1" operator="arithmetic"/><feColorMatrix values="0 0 0 0 0.478431 0 0 0 0 0.470588 0 0 0 0 0.905882 0 0 0 1 0"/><feBlend in2="effect1_innerShadow_450_20823" result="effect2_innerShadow_450_20823"/></filter></defs></svg>