<svg xmlns="http://www.w3.org/2000/svg" width="32" height="32" fill="none"><path stroke="#fff" stroke-linecap="round" stroke-linejoin="round" stroke-width="2" d="M26.255 26.253c2.147-2.148-.702-8.48-6.364-14.142C14.228 6.448 7.896 3.6 5.748 5.747c-2.147 2.148.702 8.48 6.364 14.142 5.663 5.663 11.995 8.512 14.143 6.364"/><path stroke="#fff" stroke-linecap="round" stroke-linejoin="round" stroke-width="2" d="M19.89 19.889c5.663-5.663 8.512-11.994 6.365-14.142s-8.48.701-14.143 6.364C6.45 17.773 3.601 24.105 5.748 26.253c2.148 2.148 8.48-.701 14.143-6.364Z"/><path fill="#fff" d="M16 17.5a1.5 1.5 0 1 0 0-3 1.5 1.5 0 0 0 0 3"/></svg>