<svg xmlns="http://www.w3.org/2000/svg" width="20" height="21" fill="none"><g clip-path="url(#a)"><path fill="url(#b)" d="M3.75 3.625h12.5v12.5A1.875 1.875 0 0 1 14.375 18h-8.75a1.875 1.875 0 0 1-1.875-1.875z" opacity=".2"/><path stroke="url(#c)" stroke-linecap="round" stroke-linejoin="round" stroke-width="1.4" d="M7.5 10.5h5"/><path stroke="url(#d)" stroke-linecap="round" stroke-linejoin="round" stroke-width="1.4" d="M7.5 13h5"/><path stroke="url(#e)" stroke-linecap="round" stroke-linejoin="round" stroke-width="1.4" d="M3.75 3.625h12.5v12.5A1.875 1.875 0 0 1 14.375 18h-8.75a1.875 1.875 0 0 1-1.875-1.875z"/><path stroke="url(#f)" stroke-linecap="round" stroke-linejoin="round" stroke-width="1.4" d="M6.25 2.375v2.5"/><path stroke="url(#g)" stroke-linecap="round" stroke-linejoin="round" stroke-width="1.4" d="M10 2.375v2.5"/><path stroke="url(#h)" stroke-linecap="round" stroke-linejoin="round" stroke-width="1.4" d="M13.75 2.375v2.5"/></g><defs><linearGradient id="b" x1="10" x2="10" y1="3.625" y2="18.711" gradientUnits="userSpaceOnUse"><stop offset=".453" stop-color="#ABC4F5"/><stop offset=".937" stop-color="#D1D7E4"/></linearGradient><linearGradient id="c" x1="10" x2="10" y1="10.5" y2="11.55" gradientUnits="userSpaceOnUse"><stop offset=".453" stop-color="#ABC4F5"/><stop offset=".937" stop-color="#D1D7E4"/></linearGradient><linearGradient id="d" x1="10" x2="10" y1="13" y2="14.05" gradientUnits="userSpaceOnUse"><stop offset=".453" stop-color="#ABC4F5"/><stop offset=".937" stop-color="#D1D7E4"/></linearGradient><linearGradient id="e" x1="10" x2="10" y1="3.625" y2="18.711" gradientUnits="userSpaceOnUse"><stop offset=".453" stop-color="#ABC4F5"/><stop offset=".937" stop-color="#D1D7E4"/></linearGradient><linearGradient id="f" x1="6.75" x2="6.75" y1="2.375" y2="4.999" gradientUnits="userSpaceOnUse"><stop offset=".453" stop-color="#ABC4F5"/><stop offset=".937" stop-color="#D1D7E4"/></linearGradient><linearGradient id="g" x1="10.5" x2="10.5" y1="2.375" y2="4.999" gradientUnits="userSpaceOnUse"><stop offset=".453" stop-color="#ABC4F5"/><stop offset=".937" stop-color="#D1D7E4"/></linearGradient><linearGradient id="h" x1="14.25" x2="14.25" y1="2.375" y2="4.999" gradientUnits="userSpaceOnUse"><stop offset=".453" stop-color="#ABC4F5"/><stop offset=".937" stop-color="#D1D7E4"/></linearGradient><clipPath id="a"><path fill="#fff" d="M0 .5h20v20H0z"/></clipPath></defs></svg>