<svg xmlns="http://www.w3.org/2000/svg" width="63" height="63" fill="none"><rect width="62.925" height="62.925" x=".031" y=".083" fill="#0B0B15" rx="31.463"/><rect width="61.802" height="61.802" x=".593" y=".645" stroke="#7A78E7" stroke-opacity=".2" stroke-width="1.124" rx="30.901"/><g clip-path="url(#a)"><path fill="#FFF0E7" d="M46.24 34.495a.984.984 0 0 1-.982.984H43.29v1.966a.983.983 0 0 1-1.966 0V35.48h-1.967a.983.983 0 1 1 0-1.967h1.967v-1.966a.983.983 0 0 1 1.966 0v1.966h1.967a.983.983 0 0 1 .983.983Zm-23.596-9.832h1.966v1.967a.983.983 0 0 0 1.967 0v-1.967h1.966a.983.983 0 0 0 0-1.966h-1.966V20.73a.983.983 0 0 0-1.967 0v1.966h-1.966a.983.983 0 0 0 0 1.966Zm15.731 14.748h-.983v-.983a.983.983 0 1 0-1.966 0v.983h-.984a.983.983 0 0 0 0 1.967h.984v.983a.983.983 0 1 0 1.966 0v-.983h.983a.983.983 0 0 0 0-1.967m4.34-13.764-17.122 17.12a1.966 1.966 0 0 1-2.78 0l-2.543-2.54a1.965 1.965 0 0 1 0-2.782l17.122-17.121a1.97 1.97 0 0 1 2.781 0l2.542 2.541a1.97 1.97 0 0 1 0 2.782m-1.39-1.39-2.543-2.543-3.933 3.933 2.543 2.542z"/></g><defs><clipPath id="a"><path fill="#fff" d="M15.762 15.815h31.463v31.463H15.762z"/></clipPath></defs></svg>