<svg xmlns="http://www.w3.org/2000/svg" width="68" height="68" fill="none"><g clip-path="url(#a)"><path fill="#0C0C16" d="M0 6a6 6 0 0 1 6-6h56a6 6 0 0 1 6 6v56a6 6 0 0 1-6 6H6a6 6 0 0 1-6-6z"/><g stroke="#fff" stroke-linecap="round" stroke-linejoin="round" stroke-width="2" clip-path="url(#b)"><path d="M47.5 45.25h-27v-22.5"/><path d="M44.125 26.125 34 36.25l-4.5-4.5-9 9"/><path d="M44.125 31.75v-5.625H38.5"/></g><path fill="url(#c)" d="M0 40h67v28H0z"/></g><path stroke="#252537" d="M6 .5h56A5.5 5.5 0 0 1 67.5 6v56a5.5 5.5 0 0 1-5.5 5.5H6A5.5 5.5 0 0 1 .5 62V6l.007-.283A5.5 5.5 0 0 1 6 .5Z"/><defs><clipPath id="a"><path fill="#fff" d="M0 6a6 6 0 0 1 6-6h56a6 6 0 0 1 6 6v56a6 6 0 0 1-6 6H6a6 6 0 0 1-6-6z"/></clipPath><clipPath id="b"><path fill="#fff" d="M16 16h36v36H16z"/></clipPath><radialGradient id="c" cx="0" cy="0" r="1" gradientTransform="matrix(33.5 0 0 28 33.5 68)" gradientUnits="userSpaceOnUse"><stop stop-color="#fff" stop-opacity=".12"/><stop offset="1" stop-color="#fff" stop-opacity="0"/></radialGradient></defs></svg>