<svg xmlns="http://www.w3.org/2000/svg" width="20" height="21" fill="none"><g clip-path="url(#a)"><path fill="#000" d="M13.75 8.057v2.13c0 1.407-2.285 2.567-5.271 2.779 1.086.412 2.49.66 4.02.66 3.452 0 6.25-1.26 6.25-2.813 0-1.361-2.146-2.495-5-2.756Z" opacity=".2"/><g opacity=".2"><path fill="#000" d="M7.5 9.875c3.452 0 6.25-1.26 6.25-2.813S10.952 4.25 7.5 4.25 1.25 5.51 1.25 7.063 4.048 9.875 7.5 9.875"/><path fill="url(#b)" fill-opacity=".24" d="M7.5 9.875c3.452 0 6.25-1.26 6.25-2.813S10.952 4.25 7.5 4.25 1.25 5.51 1.25 7.063 4.048 9.875 7.5 9.875"/></g><path stroke="url(#c)" stroke-linecap="round" stroke-linejoin="round" stroke-width="1.4" d="M7.5 9.875c3.452 0 6.25-1.26 6.25-2.813S10.952 4.25 7.5 4.25 1.25 5.51 1.25 7.063 4.048 9.875 7.5 9.875"/><path stroke="url(#d)" stroke-linecap="round" stroke-linejoin="round" stroke-width="1.4" d="M1.25 7.063v3.125C1.25 11.74 4.048 13 7.5 13s6.25-1.26 6.25-2.813V7.063"/><path stroke="url(#e)" stroke-linecap="round" stroke-linejoin="round" stroke-width="1.4" d="M5 9.64v3.126"/><path fill="#000" d="M13.75 8.057c2.853.26 5 1.395 5 2.756 0 1.553-2.799 2.812-6.25 2.812-1.532 0-2.935-.247-4.021-.659"/><path fill="url(#f)" fill-opacity=".24" d="M13.75 8.057c2.853.26 5 1.395 5 2.756 0 1.553-2.799 2.812-6.25 2.812-1.532 0-2.935-.247-4.021-.659"/><path stroke="url(#g)" stroke-linecap="round" stroke-linejoin="round" stroke-width="1.4" d="M13.75 8.057c2.853.26 5 1.395 5 2.756 0 1.553-2.799 2.812-6.25 2.812-1.532 0-2.935-.247-4.021-.659"/><path stroke="url(#h)" stroke-linecap="round" stroke-linejoin="round" stroke-width="1.4" d="M6.25 12.944v.993c0 1.554 2.798 2.813 6.25 2.813s6.25-1.26 6.25-2.813v-3.124"/><path stroke="url(#i)" stroke-linecap="round" stroke-linejoin="round" stroke-width="1.4" d="M15 13.39v3.126"/><path stroke="url(#j)" stroke-linecap="round" stroke-linejoin="round" stroke-width="1.4" d="M10 9.64v6.876"/></g><defs><linearGradient id="b" x1="7.5" x2="7.5" y1="4.25" y2="10.153" gradientUnits="userSpaceOnUse"><stop offset=".453" stop-color="#ABC4F5"/><stop offset=".937" stop-color="#D1D7E4"/></linearGradient><linearGradient id="c" x1="7.5" x2="7.5" y1="4.25" y2="10.153" gradientUnits="userSpaceOnUse"><stop offset=".453" stop-color="#ABC4F5"/><stop offset=".937" stop-color="#D1D7E4"/></linearGradient><linearGradient id="d" x1="7.5" x2="7.5" y1="7.063" y2="13.294" gradientUnits="userSpaceOnUse"><stop offset=".453" stop-color="#ABC4F5"/><stop offset=".937" stop-color="#D1D7E4"/></linearGradient><linearGradient id="e" x1="5.5" x2="5.5" y1="9.641" y2="12.92" gradientUnits="userSpaceOnUse"><stop offset=".453" stop-color="#ABC4F5"/><stop offset=".937" stop-color="#D1D7E4"/></linearGradient><linearGradient id="f" x1="13.614" x2="13.614" y1="8.057" y2="13.901" gradientUnits="userSpaceOnUse"><stop offset=".453" stop-color="#ABC4F5"/><stop offset=".937" stop-color="#D1D7E4"/></linearGradient><linearGradient id="g" x1="13.614" x2="13.614" y1="8.057" y2="13.901" gradientUnits="userSpaceOnUse"><stop offset=".453" stop-color="#ABC4F5"/><stop offset=".937" stop-color="#D1D7E4"/></linearGradient><linearGradient id="h" x1="12.5" x2="12.5" y1="10.813" y2="17.044" gradientUnits="userSpaceOnUse"><stop offset=".453" stop-color="#ABC4F5"/><stop offset=".937" stop-color="#D1D7E4"/></linearGradient><linearGradient id="i" x1="15.5" x2="15.5" y1="13.391" y2="16.67" gradientUnits="userSpaceOnUse"><stop offset=".453" stop-color="#ABC4F5"/><stop offset=".937" stop-color="#D1D7E4"/></linearGradient><linearGradient id="j" x1="10.5" x2="10.5" y1="9.641" y2="16.856" gradientUnits="userSpaceOnUse"><stop offset=".453" stop-color="#ABC4F5"/><stop offset=".937" stop-color="#D1D7E4"/></linearGradient><clipPath id="a"><path fill="#fff" d="M0 .5h20v20H0z"/></clipPath></defs></svg>