<svg xmlns="http://www.w3.org/2000/svg" width="20" height="21" fill="none"><g opacity=".2"><path fill="#fff" d="M4.255 16.245c-.72-.718-.242-2.229-.608-3.113-.38-.913-1.772-1.655-1.772-2.632s1.392-1.719 1.772-2.632c.366-.884-.111-2.395.608-3.113.718-.72 2.23-.242 3.113-.608.917-.38 1.655-1.772 2.632-1.772s1.719 1.392 2.632 1.772c.884.365 2.395-.111 3.113.608.72.718.243 2.229.608 3.113.38.917 1.772 1.655 1.772 2.632s-1.392 1.719-1.772 2.632c-.366.884.111 2.395-.608 3.113-.718.72-2.229.242-3.113.608-.913.38-1.655 1.772-2.632 1.772s-1.719-1.392-2.632-1.772c-.884-.366-2.395.111-3.113-.608"/><path fill="url(#a)" d="M4.255 16.245c-.72-.718-.242-2.229-.608-3.113-.38-.913-1.772-1.655-1.772-2.632s1.392-1.719 1.772-2.632c.366-.884-.111-2.395.608-3.113.718-.72 2.23-.242 3.113-.608.917-.38 1.655-1.772 2.632-1.772s1.719 1.392 2.632 1.772c.884.365 2.395-.111 3.113.608.72.718.243 2.229.608 3.113.38.917 1.772 1.655 1.772 2.632s-1.392 1.719-1.772 2.632c-.366.884.111 2.395-.608 3.113-.718.72-2.229.242-3.113.608-.913.38-1.655 1.772-2.632 1.772s-1.719-1.392-2.632-1.772c-.884-.366-2.395.111-3.113-.608"/></g><path fill="url(#b)" fill-opacity=".06" stroke="url(#c)" stroke-linecap="round" stroke-linejoin="round" d="M4.255 16.245c-.72-.718-.242-2.229-.608-3.113-.38-.913-1.772-1.655-1.772-2.632s1.392-1.719 1.772-2.632c.366-.884-.111-2.395.608-3.113.718-.72 2.23-.242 3.113-.608.917-.38 1.655-1.772 2.632-1.772s1.719 1.392 2.632 1.772c.884.365 2.395-.111 3.113.608.72.718.243 2.229.608 3.113.38.917 1.772 1.655 1.772 2.632s-1.392 1.719-1.772 2.632c-.366.884.111 2.395-.608 3.113-.718.72-2.229.242-3.113.608-.913.38-1.655 1.772-2.632 1.772s-1.719-1.392-2.632-1.772c-.884-.366-2.395.111-3.113-.608"/><path fill="#fff" d="M10 15.5a.937.937 0 1 0 0-1.875.937.937 0 0 0 0 1.875"/><path fill="url(#d)" d="M10 15.5a.937.937 0 1 0 0-1.875.937.937 0 0 0 0 1.875"/><path fill="url(#e)" fill-opacity=".06" d="M10 11.75v-.625c1.38 0 2.5-.98 2.5-2.188 0-1.207-1.12-2.187-2.5-2.187s-2.5.98-2.5 2.188v.312"/><path stroke="url(#f)" stroke-linecap="round" stroke-linejoin="round" d="M10 11.75v-.625c1.38 0 2.5-.98 2.5-2.188 0-1.207-1.12-2.187-2.5-2.187s-2.5.98-2.5 2.188v.312"/><defs><linearGradient id="a" x1="10" x2="10" y1="2.375" y2="19.429" gradientUnits="userSpaceOnUse"><stop offset=".453" stop-color="#ABC4F5"/><stop offset=".937" stop-color="#D1D7E4"/></linearGradient><linearGradient id="b" x1="10" x2="10" y1="2.375" y2="19.429" gradientUnits="userSpaceOnUse"><stop offset=".453" stop-color="#ABC4F5"/><stop offset=".937" stop-color="#D1D7E4"/></linearGradient><linearGradient id="c" x1="10" x2="10" y1="2.375" y2="19.429" gradientUnits="userSpaceOnUse"><stop offset=".453" stop-color="#ABC4F5"/><stop offset=".937" stop-color="#D1D7E4"/></linearGradient><linearGradient id="d" x1="10" x2="10" y1="13.625" y2="15.593" gradientUnits="userSpaceOnUse"><stop offset=".453" stop-color="#ABC4F5"/><stop offset=".937" stop-color="#D1D7E4"/></linearGradient><linearGradient id="e" x1="10" x2="10" y1="6.75" y2="11.997" gradientUnits="userSpaceOnUse"><stop offset=".453" stop-color="#ABC4F5"/><stop offset=".937" stop-color="#D1D7E4"/></linearGradient><linearGradient id="f" x1="10" x2="10" y1="6.75" y2="11.997" gradientUnits="userSpaceOnUse"><stop offset=".453" stop-color="#ABC4F5"/><stop offset=".937" stop-color="#D1D7E4"/></linearGradient></defs></svg>