<svg xmlns="http://www.w3.org/2000/svg" width="200" height="80" fill="none"><rect width="200" height="80" fill="#0C0C16" rx="8"/><path fill="#5D6294" d="M45.784 36.662a19.65 19.65 0 0 0 9.618-9.735c-1.249-1.285-2.872-2.203-4.621-2.754l-.938-.307c-.07.133-.112.28-.124.43-1.5 4.163-4.56 7.53-8.681 9.428-2.872 1.347-4.996 3.795-5.995 6.735l-.313.918c.126.062.313.123.437.123 1.188.43 2.374.98 3.498 1.652 1.562-2.754 4.06-5.082 7.12-6.49Zm18.111.248c-2.31 3.427-5.496 6.181-9.43 8.018-3.185 1.47-5.621 4.225-6.744 7.532l-.313 1.04a11.6 11.6 0 0 0 4.185 2.327l.936.307c.07-.133.112-.28.125-.43 1.5-4.163 4.56-7.53 8.681-9.428 2.872-1.347 5.058-3.795 5.995-6.735l.313-.918c-1.313-.367-2.561-.98-3.748-1.715v.001ZM44.91 50.317a16.27 16.27 0 0 1 8.118-8.389c3.374-1.591 6.183-4.04 8.12-7.04-1.436-1.347-2.623-2.878-3.498-4.715-2.31 4.163-5.932 7.531-10.366 9.614a12.36 12.36 0 0 0-5.87 5.632c1.373 1.286 2.496 2.877 3.372 4.653zm30.175-2.983H85.61v-2.86h-7.137v-12.54h-3.388zm21.52-11.089h-3.141v6.073c0 1.407-.966 2.464-2.334 2.464-1.28 0-2.177-.968-2.177-2.31v-6.227h-3.119v6.909c0 2.53 1.661 4.355 4.196 4.355 1.548 0 2.805-.66 3.434-1.715v1.54h3.14zm1.166 11.089h3.142V41.04c0-1.43.83-2.375 2.133-2.375 1.211 0 1.974.946 1.974 2.376v6.291h3.142v-6.291c0-1.43.829-2.377 2.132-2.377 1.211 0 1.996.947 1.996 2.377v6.291h3.12v-7.26c0-2.221-1.593-4.004-4.061-4.004-1.819 0-3.232.947-3.771 2.024-.539-1.32-1.683-2.024-3.455-2.024-1.527 0-2.604.726-3.21 1.738v-1.562h-3.14l-.002 11.089Zm18.709-15.907v3.234h3.322v-3.234zm.09 15.907h3.141V36.245h-3.141zm4.312 0h3.142V41.26c0-1.43.965-2.464 2.333-2.464 1.302 0 2.178.969 2.178 2.31v6.227h3.141v-6.909c0-2.551-1.661-4.355-4.219-4.355-1.549 0-2.805.638-3.433 1.715v-1.54h-3.142zm17.346.175c3.478 0 5.97-2.42 5.97-5.72s-2.492-5.72-5.97-5.72-5.968 2.42-5.968 5.72 2.49 5.72 5.968 5.72m0-2.64c-1.683 0-2.827-1.254-2.827-3.08 0-1.848 1.144-3.102 2.827-3.102s2.828 1.255 2.828 3.102c0 1.826-1.145 3.08-2.828 3.08m17.347-8.623h-3.141v6.072c0 1.407-.965 2.464-2.333 2.464-1.28 0-2.177-.968-2.177-2.31v-6.227h-3.12v6.909c0 2.53 1.661 4.355 4.197 4.355 1.548 0 2.805-.66 3.433-1.715v1.54h3.141V36.245Zm5.297 11.264c2.647 0 4.398-1.386 4.398-3.498 0-5.017-6.193-2.443-6.193-4.709 0-.703.606-1.078 1.48-1.078.853 0 1.728.506 1.862 1.453h2.716c-.112-2.178-1.952-3.608-4.667-3.608-2.312 0-4.039 1.386-4.039 3.343 0 4.665 6.081 2.443 6.081 4.709 0 .615-.674 1.078-1.638 1.078-1.167 0-1.953-.617-2.065-1.607h-2.693c.112 2.398 1.998 3.916 4.758 3.916Z"/></svg>