<svg xmlns="http://www.w3.org/2000/svg" width="153" height="48" fill="none"><path fill="#fff" fill-opacity=".01" d="M0 10.91C0 4.883 4.884 0 10.91 0h131.174c6.025 0 10.909 4.884 10.909 10.91v26.18c0 6.026-4.884 10.91-10.909 10.91H10.909C4.884 48 0 43.116 0 37.09z"/><g clip-path="url(#a)"><rect width="34.909" height="34.909" x="8.727" y="6.545" fill="url(#b)" rx="17.454"/><path fill="#fff" d="M28.497 21.336h-4.612a.36.36 0 0 0-.357.357v4.616c0 .197.16.357.357.357h4.612c.195 0 .356-.16.356-.357v-4.616a.36.36 0 0 0-.356-.357m-5.324-5.313h-4.612a.36.36 0 0 0-.356.357v4.617c0 .195.16.356.356.356h4.612c.196 0 .357-.16.357-.357V16.38a.36.36 0 0 0-.357-.357m10.63 0h-4.612a.36.36 0 0 0-.356.357v4.617c0 .195.16.356.356.356h4.612c.196 0 .357-.16.357-.357V16.38a.36.36 0 0 0-.357-.357m-10.63 10.625h-4.612a.36.36 0 0 0-.356.356v4.617c0 .196.16.357.356.357h4.612a.36.36 0 0 0 .357-.357v-4.617a.36.36 0 0 0-.357-.357Zm10.63 0h-4.612a.36.36 0 0 0-.356.356v4.617c0 .196.16.357.356.357h4.612a.36.36 0 0 0 .357-.357v-4.617a.36.36 0 0 0-.357-.357Z"/><rect width="34.909" height="34.909" x="43.636" y="6.545" fill="url(#c)" rx="8.727" transform="rotate(90 43.636 6.545)"/></g><path fill="#fff" d="M60.918 17.716v-3.374H76.81v3.374h-5.925v15.977h-4.044V17.716zm16.794 15.977V19.18h3.902v2.532h.152q.396-1.35 1.332-2.04.934-.7 2.154-.7.303 0 .652.038t.614.104v3.572a5 5 0 0 0-.784-.152 7 7 0 0 0-.916-.066q-.89 0-1.588.388-.69.377-1.096 1.058-.397.68-.397 1.568v8.211zm14.477.274q-1.389 0-2.475-.481a4 4 0 0 1-1.72-1.446q-.624-.965-.624-2.4 0-1.21.444-2.032a3.6 3.6 0 0 1 1.21-1.322 5.9 5.9 0 0 1 1.738-.756 13 13 0 0 1 2.06-.36q1.267-.132 2.041-.245.775-.123 1.124-.36.35-.236.35-.698v-.057q0-.897-.567-1.389-.556-.492-1.587-.491-1.087 0-1.73.482a2.22 2.22 0 0 0-.85 1.19l-3.722-.302a5.06 5.06 0 0 1 1.114-2.287q.833-.973 2.145-1.493 1.323-.529 3.062-.529a9.3 9.3 0 0 1 2.315.284 6 6 0 0 1 1.974.878 4.3 4.3 0 0 1 1.37 1.531q.501.926.501 2.22v9.79h-3.817V31.68h-.114a4.1 4.1 0 0 1-.935 1.2q-.585.51-1.408.803-.821.283-1.899.283Zm1.153-2.777q.888 0 1.568-.35.681-.359 1.068-.964t.387-1.37v-1.54a2.2 2.2 0 0 1-.52.227 10 10 0 0 1-.727.18q-.405.075-.812.14l-.737.105a5 5 0 0 0-1.238.33q-.53.228-.822.615-.293.378-.293.945 0 .822.595 1.256.605.425 1.53.425Zm15.358 2.74q-1.654 0-2.995-.85-1.332-.86-2.117-2.524-.775-1.673-.775-4.1 0-2.495.804-4.148.803-1.663 2.135-2.485a5.47 5.47 0 0 1 2.938-.832q1.22 0 2.032.416.822.405 1.323 1.02.51.605.775 1.19h.122v-7.275h4.016v19.351h-3.968V31.37h-.17a5.2 5.2 0 0 1-.804 1.2q-.51.586-1.332.973-.813.388-1.984.388Zm1.276-3.203q.972 0 1.644-.53.68-.539 1.039-1.502.368-.964.368-2.258c0-1.294-.119-1.613-.359-2.249q-.358-.954-1.039-1.474t-1.653-.52q-.992 0-1.673.539-.68.539-1.03 1.493t-.349 2.21q0 1.267.349 2.24.36.964 1.03 1.512.68.539 1.673.539m16.773 3.25q-2.24 0-3.856-.907a6.2 6.2 0 0 1-2.475-2.59q-.87-1.68-.869-3.977 0-2.24.869-3.93.869-1.692 2.447-2.637 1.587-.945 3.723-.945 1.436 0 2.674.463a5.9 5.9 0 0 1 2.173 1.37q.936.917 1.455 2.306.52 1.38.52 3.231v1.106h-12.255v-2.495h8.466q0-.87-.378-1.54a2.7 2.7 0 0 0-1.049-1.049q-.661-.387-1.54-.387-.917 0-1.625.425a3 3 0 0 0-1.096 1.125q-.397.699-.406 1.559v2.371q0 1.077.396 1.861a2.9 2.9 0 0 0 1.144 1.21q.737.425 1.748.425a3.8 3.8 0 0 0 1.228-.189 2.54 2.54 0 0 0 .954-.567 2.46 2.46 0 0 0 .605-.926l3.723.246a5.1 5.1 0 0 1-1.162 2.343q-.87.992-2.249 1.55-1.371.548-3.165.548m15.712 0q-2.202 0-3.808-.936a6.4 6.4 0 0 1-2.466-2.626q-.869-1.692-.869-3.921 0-2.25.869-3.931a6.33 6.33 0 0 1 2.466-2.627q1.606-.945 3.808-.945c2.202 0 2.734.315 3.798.945a6.3 6.3 0 0 1 2.476 2.627q.869 1.681.869 3.93 0 2.23-.869 3.922a6.4 6.4 0 0 1-2.476 2.626q-1.596.936-3.798.936m.019-3.118q1.002 0 1.672-.567.672-.576 1.011-1.569.35-.992.35-2.258t-.35-2.258q-.339-.992-1.011-1.569-.67-.576-1.672-.576-1.011 0-1.701.576-.68.577-1.03 1.569-.34.992-.34 2.258t.34 2.258q.35.993 1.03 1.569.69.567 1.701.567"/><defs><linearGradient id="b" x1="14.524" x2="56.43" y1="-10.715" y2="3.358" gradientUnits="userSpaceOnUse"><stop stop-color="#9968FF"/><stop offset=".5" stop-color="#FF6CB2"/><stop offset="1" stop-color="#FFAF56"/></linearGradient><linearGradient id="c" x1="61.09" x2="61.09" y1="6.545" y2="41.455" gradientUnits="userSpaceOnUse"><stop stop-color="#fff" stop-opacity=".32"/><stop offset="1" stop-opacity="0"/></linearGradient><clipPath id="a"><rect width="34.909" height="34.909" x="8.727" y="6.545" fill="#fff" rx="17.454"/></clipPath></defs></svg>