<svg xmlns="http://www.w3.org/2000/svg" width="200" height="80" fill="none"><rect width="200" height="80" fill="#0C0C16" rx="8"/><path stroke="#5D6294" stroke-width="3" d="M66.537 40c0 8.55-7.094 15.492-15.855 15.492-8.763 0-15.856-6.941-15.856-15.492 0-8.55 7.093-15.492 15.856-15.492 8.761 0 15.855 6.941 15.855 15.491Z"/><path stroke="#5D6294" stroke-width="3" d="M56.818 45.998c-3.25 3.174-6.913 5.23-10.144 6.042-3.272.823-5.77.316-7.202-1.085-1.432-1.398-1.95-3.84-1.11-7.04.832-3.157 2.935-6.738 6.184-9.913 3.247-3.176 6.912-5.23 10.142-6.042 3.273-.823 5.772-.316 7.203 1.083 1.43 1.4 1.951 3.841 1.109 7.04-.831 3.157-2.934 6.739-6.182 9.915Z"/><path stroke="#5D6294" stroke-width="3" d="M56.818 34.002c3.248 3.175 5.351 6.756 6.182 9.915.841 3.198.322 5.64-1.11 7.04-1.431 1.398-3.928 1.906-7.202 1.083-3.23-.812-6.893-2.868-10.142-6.043s-5.352-6.757-6.183-9.913c-.84-3.2-.323-5.641 1.11-7.04 1.43-1.4 3.929-1.907 7.201-1.085 3.231.813 6.895 2.868 10.144 6.043Z"/><path fill="#5D6294" d="M83.246 47.784c3.755 0 6.29-1.917 6.29-4.98 0-6.474-8.8-3.715-8.8-7.129 0-.958.884-1.612 2.295-1.612 1.602 0 2.606.841 2.725 2.127h3.42c-.095-3.11-2.534-5.142-6.145-5.142-3.396 0-5.788 1.916-5.788 4.627 0 6.429 8.681 3.975 8.681 7.177 0 1.238-1.077 1.893-2.678 1.893-1.77 0-2.893-1.052-3.038-2.712h-3.443c.143 3.483 2.678 5.751 6.481 5.751m7.102 4.582h3.325v-5.822c.645.796 1.817 1.24 3.18 1.24 3.468 0 5.812-2.409 5.812-6.078s-2.153-6.078-5.524-6.078c-1.555 0-2.751.561-3.468 1.474v-1.287h-3.325v16.55Zm6.099-7.388c-1.795 0-2.966-1.309-2.966-3.271 0-1.988 1.172-3.297 2.966-3.297 1.745 0 2.941 1.309 2.941 3.297 0 1.963-1.196 3.271-2.942 3.271Zm7.022 2.618h3.324v-6.451c0-1.519 1.028-2.619 2.487-2.619 1.387 0 2.344 1.029 2.344 2.456v6.614h3.324v-7.34c0-2.71-1.77-4.628-4.472-4.628-1.674 0-2.989.679-3.683 1.824v-6.755h-3.324zm20.778-3.996c-.263 1.004-1.148 1.519-2.488 1.519-1.673 0-2.749-1.029-2.988-2.689h8.657c.023-.256.047-.607.047-1.051 0-2.689-1.698-5.751-5.955-5.751-4.089 0-5.954 3.062-5.954 6.054 0 2.97 2.105 6.101 6.193 6.101 2.967 0 5.262-1.636 5.74-4.183zm-2.725-5.587c1.601 0 2.534 1.051 2.629 2.36h-5.333c.287-1.635 1.198-2.36 2.704-2.36m14.671.514v-2.712h-1.714c-1.459 0-2.368.492-3.014 1.964v-1.964h-3.347v11.781h3.348v-5.727c0-2.01.742-3.343 2.391-3.343h2.336Zm11.48-2.712h-3.349v6.452c0 1.496-1.028 2.618-2.487 2.618-1.363 0-2.319-1.029-2.319-2.453v-6.617h-3.325v7.34c0 2.689 1.769 4.628 4.472 4.628 1.651 0 2.99-.7 3.659-1.823v1.636h3.349v-11.78Zm1.434 11.781h3.324v-16.9h-3.324zm12.815-3.996c-.264 1.004-1.149 1.519-2.488 1.519-1.674 0-2.749-1.029-2.988-2.688h8.656c.025-.257.048-.608.048-1.052 0-2.688-1.697-5.75-5.954-5.75-4.09 0-5.955 3.062-5.955 6.053 0 2.97 2.105 6.101 6.193 6.101 2.967 0 5.262-1.636 5.74-4.183zm-2.726-5.587c1.602 0 2.534 1.052 2.63 2.36h-5.333c.287-1.635 1.195-2.36 2.703-2.36"/></svg>