<svg xmlns="http://www.w3.org/2000/svg" width="21" height="21" fill="none"><g clip-path="url(#a)"><path fill="#000" d="M4.875 8.625h-2.5a.625.625 0 0 0-.625.625v2.5c0 .345.28.625.625.625h2.5c.345 0 .625-.28.625-.625v-2.5a.625.625 0 0 0-.625-.625m11.875-5H13a.625.625 0 0 0-.625.625V8c0 .345.28.625.625.625h3.75c.345 0 .625-.28.625-.625V4.25a.625.625 0 0 0-.625-.625" opacity=".2"/><path fill="url(#b)" d="M16.75 12.375H13a.625.625 0 0 0-.625.625v3.75c0 .345.28.625.625.625h3.75c.345 0 .625-.28.625-.625V13a.625.625 0 0 0-.625-.625" opacity=".2"/><path fill="url(#c)" fill-opacity=".24" stroke="url(#d)" stroke-linecap="round" stroke-linejoin="round" stroke-width="1.4" d="M4.875 8.625h-2.5a.625.625 0 0 0-.625.625v2.5c0 .345.28.625.625.625h2.5c.345 0 .625-.28.625-.625v-2.5a.625.625 0 0 0-.625-.625"/><path fill="url(#e)" fill-opacity=".24" stroke="url(#f)" stroke-linecap="round" stroke-linejoin="round" stroke-width="1.4" d="M16.75 3.625H13a.625.625 0 0 0-.625.625V8c0 .345.28.625.625.625h3.75c.345 0 .625-.28.625-.625V4.25a.625.625 0 0 0-.625-.625"/><path stroke="url(#g)" stroke-linecap="round" stroke-linejoin="round" stroke-width="1.4" d="M16.75 12.375H13a.625.625 0 0 0-.625.625v3.75c0 .345.28.625.625.625h3.75c.345 0 .625-.28.625-.625V13a.625.625 0 0 0-.625-.625"/><path stroke="url(#h)" stroke-linecap="round" stroke-linejoin="round" stroke-width="1.4" d="M5.5 10.5h3.75"/><path stroke="url(#i)" stroke-linecap="round" stroke-linejoin="round" stroke-width="1.4" d="M12.375 14.875H10.5a1.25 1.25 0 0 1-1.25-1.25v-6.25a1.25 1.25 0 0 1 1.25-1.25h1.875"/></g><defs><linearGradient id="b" x1="14.875" x2="14.875" y1="12.375" y2="17.622" gradientUnits="userSpaceOnUse"><stop offset=".453" stop-color="#ABC4F5"/><stop offset=".937" stop-color="#D1D7E4"/></linearGradient><linearGradient id="c" x1="3.625" x2="3.625" y1="8.625" y2="12.56" gradientUnits="userSpaceOnUse"><stop offset=".453" stop-color="#ABC4F5"/><stop offset=".937" stop-color="#D1D7E4"/></linearGradient><linearGradient id="d" x1="3.625" x2="3.625" y1="8.625" y2="12.56" gradientUnits="userSpaceOnUse"><stop offset=".453" stop-color="#ABC4F5"/><stop offset=".937" stop-color="#D1D7E4"/></linearGradient><linearGradient id="e" x1="14.875" x2="14.875" y1="3.625" y2="8.872" gradientUnits="userSpaceOnUse"><stop offset=".453" stop-color="#ABC4F5"/><stop offset=".937" stop-color="#D1D7E4"/></linearGradient><linearGradient id="f" x1="14.875" x2="14.875" y1="3.625" y2="8.872" gradientUnits="userSpaceOnUse"><stop offset=".453" stop-color="#ABC4F5"/><stop offset=".937" stop-color="#D1D7E4"/></linearGradient><linearGradient id="g" x1="14.875" x2="14.875" y1="12.375" y2="17.622" gradientUnits="userSpaceOnUse"><stop offset=".453" stop-color="#ABC4F5"/><stop offset=".937" stop-color="#D1D7E4"/></linearGradient><linearGradient id="h" x1="7.375" x2="7.375" y1="10.5" y2="11.55" gradientUnits="userSpaceOnUse"><stop offset=".453" stop-color="#ABC4F5"/><stop offset=".937" stop-color="#D1D7E4"/></linearGradient><linearGradient id="i" x1="10.813" x2="10.813" y1="6.125" y2="15.308" gradientUnits="userSpaceOnUse"><stop offset=".453" stop-color="#ABC4F5"/><stop offset=".937" stop-color="#D1D7E4"/></linearGradient><clipPath id="a"><path fill="#fff" d="M.5.5h20v20H.5z"/></clipPath></defs></svg>