<svg xmlns="http://www.w3.org/2000/svg" width="20" height="20" fill="none"><path fill="url(#a)" fill-opacity=".12" d="M.799 15.625a6.875 6.875 0 0 1 11.526 0"/><path stroke="url(#b)" stroke-linecap="round" stroke-linejoin="round" stroke-width="1.4" d="M.799 15.625a6.875 6.875 0 0 1 11.526 0"/><path fill="url(#c)" d="M13.438 12.5a6.87 6.87 0 0 1 5.763 3.125"/><path stroke="url(#d)" stroke-linecap="round" stroke-linejoin="round" stroke-width="1.4" d="M13.438 12.5a6.87 6.87 0 0 1 5.763 3.125"/><path stroke="url(#e)" stroke-linecap="round" stroke-linejoin="round" stroke-width="1.4" d="M6.563 12.5a4.062 4.062 0 1 0 0-8.125 4.062 4.062 0 0 0 0 8.125"/><path fill="url(#f)" fill-opacity=".12" d="M11.93 4.664a4.062 4.062 0 1 1 1.508 7.836"/><path stroke="url(#g)" stroke-linecap="round" stroke-linejoin="round" stroke-width="1.4" d="M11.93 4.664a4.062 4.062 0 1 1 1.508 7.836"/><defs><linearGradient id="a" x1="6.562" x2="6.562" y1="12.498" y2="15.78" gradientUnits="userSpaceOnUse"><stop offset=".453" stop-color="#ABC4F5"/><stop offset=".937" stop-color="#D1D7E4"/></linearGradient><linearGradient id="b" x1="6.562" x2="6.562" y1="12.498" y2="15.78" gradientUnits="userSpaceOnUse"><stop offset=".453" stop-color="#ABC4F5"/><stop offset=".937" stop-color="#D1D7E4"/></linearGradient><linearGradient id="c" x1="16.319" x2="16.319" y1="12.5" y2="15.78" gradientUnits="userSpaceOnUse"><stop offset=".453" stop-color="#ABC4F5"/><stop offset=".937" stop-color="#D1D7E4"/></linearGradient><linearGradient id="d" x1="16.319" x2="16.319" y1="12.5" y2="15.78" gradientUnits="userSpaceOnUse"><stop offset=".453" stop-color="#ABC4F5"/><stop offset=".937" stop-color="#D1D7E4"/></linearGradient><linearGradient id="e" x1="6.563" x2="6.563" y1="4.375" y2="12.902" gradientUnits="userSpaceOnUse"><stop offset=".453" stop-color="#ABC4F5"/><stop offset=".937" stop-color="#D1D7E4"/></linearGradient><linearGradient id="f" x1="14.713" x2="14.713" y1="4.375" y2="12.902" gradientUnits="userSpaceOnUse"><stop offset=".453" stop-color="#ABC4F5"/><stop offset=".937" stop-color="#D1D7E4"/></linearGradient><linearGradient id="g" x1="14.713" x2="14.713" y1="4.375" y2="12.902" gradientUnits="userSpaceOnUse"><stop offset=".453" stop-color="#ABC4F5"/><stop offset=".937" stop-color="#D1D7E4"/></linearGradient></defs></svg>